<svg width="451" height="438" viewBox="0 0 451 438" fill="none" xmlns="http://www.w3.org/2000/svg">
<path d="M257.529 25.1907C216.379 18.0039 174.013 25.5649 137.889 46.5424L173.643 108.111C195.273 95.5503 220.64 91.0231 245.28 95.3263L257.529 25.1907Z" fill="#FFD7A3"/>
<path d="M138.842 45.993C116.591 58.7311 97.3638 76.1402 82.4854 97.0215C67.607 117.903 57.4305 141.76 52.6565 166.952L122.609 180.208C125.467 165.125 131.561 150.839 140.469 138.336C149.378 125.833 160.89 115.409 174.214 107.782L138.842 45.993Z" fill="#F3A8E2"/>
<path d="M64.0077 129.843C54.4715 152.001 49.5533 175.87 49.5535 199.993C49.5538 224.116 54.4724 247.985 64.009 270.143L129.406 241.996C123.696 228.728 120.751 214.436 120.751 199.992C120.751 185.548 123.695 171.256 129.405 157.989L64.0077 129.843Z" fill="#FB4E22"/>
<path d="M56.028 247.487C64.9294 279.53 82.6563 308.426 107.187 330.881L155.26 278.364C140.572 264.919 129.957 247.616 124.627 228.43L56.028 247.487Z" fill="#C3E1FF"/>
<path d="M105.806 329.603C123.968 346.586 145.498 359.562 168.997 367.69C192.497 375.818 217.443 378.916 242.217 376.784L236.111 305.849C221.277 307.126 206.341 305.271 192.27 300.404C178.199 295.537 165.308 287.768 154.433 277.599L105.806 329.603Z" fill="#B91293"/>
<path d="M395.002 142.871C384.479 111.922 365.612 84.4808 340.481 63.5752C315.35 42.6697 284.933 29.1124 252.585 24.399L242.32 94.8523C261.688 97.6745 279.901 105.792 294.949 118.31C309.996 130.827 321.293 147.258 327.594 165.79L395.002 142.871Z" fill="#9747FF"/>
<path d="M362.035 315.112C382.129 291.542 395.704 263.123 401.41 232.68C407.115 202.237 404.753 170.83 394.558 141.583L327.329 165.019C333.433 182.531 334.847 201.336 331.431 219.564C328.015 237.792 319.886 254.809 307.855 268.922L362.035 315.112Z" fill="#EEBC28"/>
<path d="M242.093 376.795C265.311 374.813 287.911 368.277 308.604 357.561C329.296 346.844 347.675 332.157 362.691 314.338L308.248 268.458C299.256 279.128 288.252 287.922 275.862 294.339C263.472 300.755 249.939 304.669 236.037 305.856L242.093 376.795Z" fill="#FCA997"/>
<path d="M353.903 42.4438V41.6768L356.784 38.5234C357.122 38.1541 357.401 37.8331 357.619 37.5603C357.838 37.2848 358 37.0262 358.105 36.7848C358.213 36.5404 358.267 36.2848 358.267 36.0177C358.267 35.7109 358.193 35.4453 358.045 35.2208C357.901 34.9964 357.702 34.8231 357.449 34.7009C357.196 34.5788 356.912 34.5177 356.597 34.5177C356.261 34.5177 355.969 34.5873 355.719 34.7265C355.472 34.8629 355.28 35.0546 355.143 35.3018C355.01 35.549 354.943 35.8387 354.943 36.1711H353.938C353.938 35.6598 354.055 35.2109 354.291 34.8245C354.527 34.4382 354.848 34.137 355.254 33.9211C355.663 33.7052 356.122 33.5973 356.631 33.5973C357.142 33.5973 357.595 33.7052 357.99 33.9211C358.385 34.137 358.695 34.4282 358.919 34.7947C359.143 35.1612 359.256 35.5688 359.256 36.0177C359.256 36.3387 359.197 36.6527 359.081 36.9595C358.967 37.2634 358.768 37.6029 358.484 37.9779C358.203 38.3501 357.812 38.8046 357.312 39.3416L355.352 41.4382V41.5063H359.409V42.4438H353.903ZM364.016 42.5632C363.374 42.5632 362.827 42.3884 362.375 42.039C361.923 41.6867 361.578 41.1768 361.339 40.5092C361.101 39.8387 360.982 39.0291 360.982 38.0802C360.982 37.137 361.101 36.3316 361.339 35.664C361.581 34.9936 361.928 34.4822 362.379 34.1299C362.834 33.7748 363.379 33.5973 364.016 33.5973C364.652 33.5973 365.196 33.7748 365.648 34.1299C366.102 34.4822 366.449 34.9936 366.688 35.664C366.929 36.3316 367.05 37.137 367.05 38.0802C367.05 39.0291 366.93 39.8387 366.692 40.5092C366.453 41.1768 366.108 41.6867 365.656 42.039C365.205 42.3884 364.658 42.5632 364.016 42.5632ZM364.016 41.6257C364.652 41.6257 365.146 41.3188 365.499 40.7052C365.851 40.0916 366.027 39.2166 366.027 38.0802C366.027 37.3245 365.946 36.6811 365.784 36.1498C365.625 35.6186 365.395 35.2137 365.094 34.9353C364.795 34.6569 364.436 34.5177 364.016 34.5177C363.385 34.5177 362.892 34.8288 362.537 35.4509C362.182 36.0703 362.004 36.9467 362.004 38.0802C362.004 38.8359 362.084 39.4779 362.243 40.0063C362.402 40.5348 362.631 40.9367 362.929 41.2123C363.23 41.4879 363.592 41.6257 364.016 41.6257ZM376.493 40.8075V40.3473C376.493 40.0291 376.558 39.7379 376.689 39.4737C376.822 39.2066 377.016 38.9936 377.268 38.8345C377.524 38.6725 377.834 38.5916 378.197 38.5916C378.567 38.5916 378.876 38.6725 379.126 38.8345C379.376 38.9936 379.565 39.2066 379.693 39.4737C379.821 39.7379 379.885 40.0291 379.885 40.3473V40.8075C379.885 41.1257 379.82 41.4183 379.689 41.6853C379.561 41.9495 379.371 42.1626 379.118 42.3245C378.868 42.4836 378.561 42.5632 378.197 42.5632C377.828 42.5632 377.517 42.4836 377.264 42.3245C377.011 42.1626 376.82 41.9495 376.689 41.6853C376.558 41.4183 376.493 41.1257 376.493 40.8075ZM377.362 40.3473V40.8075C377.362 41.0717 377.425 41.3089 377.55 41.5191C377.675 41.7265 377.891 41.8302 378.197 41.8302C378.496 41.8302 378.706 41.7265 378.828 41.5191C378.953 41.3089 379.016 41.0717 379.016 40.8075V40.3473C379.016 40.0831 378.956 39.8473 378.837 39.6399C378.717 39.4296 378.504 39.3245 378.197 39.3245C377.899 39.3245 377.685 39.4296 377.554 39.6399C377.426 39.8473 377.362 40.0831 377.362 40.3473ZM372.146 35.8132V35.3529C372.146 35.0348 372.212 34.7436 372.342 34.4794C372.476 34.2123 372.669 33.9992 372.922 33.8402C373.178 33.6782 373.487 33.5973 373.851 33.5973C374.22 33.5973 374.53 33.6782 374.78 33.8402C375.03 33.9992 375.219 34.2123 375.347 34.4794C375.474 34.7436 375.538 35.0348 375.538 35.3529V35.8132C375.538 36.1313 375.473 36.424 375.342 36.691C375.214 36.9552 375.024 37.1683 374.771 37.3302C374.521 37.4893 374.214 37.5688 373.851 37.5688C373.482 37.5688 373.17 37.4893 372.918 37.3302C372.665 37.1683 372.473 36.9552 372.342 36.691C372.212 36.424 372.146 36.1313 372.146 35.8132ZM373.016 35.3529V35.8132C373.016 36.0774 373.078 36.3146 373.203 36.5248C373.328 36.7322 373.544 36.8359 373.851 36.8359C374.149 36.8359 374.359 36.7322 374.482 36.5248C374.607 36.3146 374.669 36.0774 374.669 35.8132V35.3529C374.669 35.0887 374.609 34.8529 374.49 34.6456C374.371 34.4353 374.158 34.3302 373.851 34.3302C373.553 34.3302 373.338 34.4353 373.207 34.6456C373.08 34.8529 373.016 35.0887 373.016 35.3529ZM372.47 42.4438L378.47 33.7166H379.442L373.442 42.4438H372.47Z" fill="white"/>
<path d="M423.639 271.626V270.859L426.519 267.706C426.858 267.336 427.136 267.015 427.355 266.742C427.573 266.467 427.735 266.208 427.84 265.967C427.948 265.723 428.002 265.467 428.002 265.2C428.002 264.893 427.929 264.627 427.781 264.403C427.636 264.179 427.437 264.005 427.184 263.883C426.931 263.761 426.647 263.7 426.332 263.7C425.997 263.7 425.704 263.769 425.454 263.909C425.207 264.045 425.015 264.237 424.879 264.484C424.745 264.731 424.679 265.021 424.679 265.353H423.673C423.673 264.842 423.791 264.393 424.027 264.007C424.262 263.62 424.583 263.319 424.99 263.103C425.399 262.887 425.858 262.779 426.366 262.779C426.877 262.779 427.331 262.887 427.725 263.103C428.12 263.319 428.43 263.61 428.654 263.977C428.879 264.343 428.991 264.751 428.991 265.2C428.991 265.521 428.933 265.835 428.816 266.142C428.703 266.446 428.504 266.785 428.22 267.16C427.938 267.532 427.548 267.987 427.048 268.524L425.088 270.62V270.688H429.144V271.626H423.639ZM433.751 271.745C433.109 271.745 432.562 271.571 432.11 271.221C431.659 270.869 431.313 270.359 431.075 269.691C430.836 269.021 430.717 268.211 430.717 267.262C430.717 266.319 430.836 265.514 431.075 264.846C431.316 264.176 431.663 263.664 432.115 263.312C432.569 262.957 433.115 262.779 433.751 262.779C434.387 262.779 434.931 262.957 435.383 263.312C435.838 263.664 436.184 264.176 436.423 264.846C436.664 265.514 436.785 266.319 436.785 267.262C436.785 268.211 436.666 269.021 436.427 269.691C436.188 270.359 435.843 270.869 435.392 271.221C434.94 271.571 434.393 271.745 433.751 271.745ZM433.751 270.808C434.387 270.808 434.882 270.501 435.234 269.887C435.586 269.274 435.762 268.399 435.762 267.262C435.762 266.507 435.681 265.863 435.519 265.332C435.36 264.801 435.13 264.396 434.829 264.117C434.531 263.839 434.171 263.7 433.751 263.7C433.12 263.7 432.627 264.011 432.272 264.633C431.917 265.252 431.74 266.129 431.74 267.262C431.74 268.018 431.819 268.66 431.978 269.188C432.137 269.717 432.366 270.119 432.664 270.394C432.965 270.67 433.328 270.808 433.751 270.808ZM446.228 269.99V269.529C446.228 269.211 446.294 268.92 446.424 268.656C446.558 268.389 446.751 268.176 447.004 268.017C447.259 267.855 447.569 267.774 447.933 267.774C448.302 267.774 448.612 267.855 448.862 268.017C449.112 268.176 449.301 268.389 449.429 268.656C449.556 268.92 449.62 269.211 449.62 269.529V269.99C449.62 270.308 449.555 270.6 449.424 270.867C449.296 271.132 449.106 271.345 448.853 271.507C448.603 271.666 448.296 271.745 447.933 271.745C447.563 271.745 447.252 271.666 447 271.507C446.747 271.345 446.555 271.132 446.424 270.867C446.294 270.6 446.228 270.308 446.228 269.99ZM447.098 269.529V269.99C447.098 270.254 447.16 270.491 447.285 270.701C447.41 270.909 447.626 271.012 447.933 271.012C448.231 271.012 448.441 270.909 448.563 270.701C448.688 270.491 448.751 270.254 448.751 269.99V269.529C448.751 269.265 448.691 269.029 448.572 268.822C448.453 268.612 448.24 268.507 447.933 268.507C447.634 268.507 447.42 268.612 447.289 268.822C447.161 269.029 447.098 269.265 447.098 269.529ZM441.882 264.995V264.535C441.882 264.217 441.947 263.926 442.078 263.661C442.211 263.394 442.404 263.181 442.657 263.022C442.913 262.86 443.223 262.779 443.586 262.779C443.956 262.779 444.265 262.86 444.515 263.022C444.765 263.181 444.954 263.394 445.082 263.661C445.21 263.926 445.274 264.217 445.274 264.535V264.995C445.274 265.313 445.208 265.606 445.078 265.873C444.95 266.137 444.759 266.35 444.507 266.512C444.257 266.671 443.95 266.751 443.586 266.751C443.217 266.751 442.906 266.671 442.653 266.512C442.4 266.35 442.208 266.137 442.078 265.873C441.947 265.606 441.882 265.313 441.882 264.995ZM442.751 264.535V264.995C442.751 265.259 442.813 265.497 442.938 265.707C443.063 265.914 443.279 266.018 443.586 266.018C443.884 266.018 444.095 265.914 444.217 265.707C444.342 265.497 444.404 265.259 444.404 264.995V264.535C444.404 264.271 444.345 264.035 444.225 263.828C444.106 263.617 443.893 263.512 443.586 263.512C443.288 263.512 443.073 263.617 442.943 263.828C442.815 264.035 442.751 264.271 442.751 264.535ZM442.206 271.626L448.206 262.899H449.177L443.177 271.626H442.206Z" fill="white"/>
<path d="M290.236 377.4V386.127H289.179V378.508H289.128L286.998 379.923V378.849L289.179 377.4H290.236ZM295.593 386.247C294.951 386.247 294.404 386.072 293.952 385.723C293.5 385.37 293.155 384.86 292.917 384.193C292.678 383.522 292.559 382.713 292.559 381.764C292.559 380.821 292.678 380.015 292.917 379.348C293.158 378.677 293.505 378.166 293.956 377.814C294.411 377.458 294.956 377.281 295.593 377.281C296.229 377.281 296.773 377.458 297.225 377.814C297.679 378.166 298.026 378.677 298.265 379.348C298.506 380.015 298.627 380.821 298.627 381.764C298.627 382.713 298.508 383.522 298.269 384.193C298.03 384.86 297.685 385.37 297.233 385.723C296.782 386.072 296.235 386.247 295.593 386.247ZM295.593 385.309C296.229 385.309 296.723 385.002 297.076 384.389C297.428 383.775 297.604 382.9 297.604 381.764C297.604 381.008 297.523 380.365 297.361 379.833C297.202 379.302 296.972 378.897 296.671 378.619C296.373 378.341 296.013 378.201 295.593 378.201C294.962 378.201 294.469 378.512 294.114 379.135C293.759 379.754 293.581 380.63 293.581 381.764C293.581 382.519 293.661 383.162 293.82 383.69C293.979 384.218 294.208 384.62 294.506 384.896C294.807 385.171 295.169 385.309 295.593 385.309ZM304.695 384.491V384.031C304.695 383.713 304.76 383.421 304.891 383.157C305.025 382.89 305.218 382.677 305.471 382.518C305.726 382.356 306.036 382.275 306.4 382.275C306.769 382.275 307.079 382.356 307.329 382.518C307.579 382.677 307.767 382.89 307.895 383.157C308.023 383.421 308.087 383.713 308.087 384.031V384.491C308.087 384.809 308.022 385.102 307.891 385.369C307.763 385.633 307.573 385.846 307.32 386.008C307.07 386.167 306.763 386.247 306.4 386.247C306.03 386.247 305.719 386.167 305.466 386.008C305.214 385.846 305.022 385.633 304.891 385.369C304.76 385.102 304.695 384.809 304.695 384.491ZM305.564 384.031V384.491C305.564 384.755 305.627 384.992 305.752 385.203C305.877 385.41 306.093 385.514 306.4 385.514C306.698 385.514 306.908 385.41 307.03 385.203C307.155 384.992 307.218 384.755 307.218 384.491V384.031C307.218 383.767 307.158 383.531 307.039 383.323C306.919 383.113 306.706 383.008 306.4 383.008C306.101 383.008 305.887 383.113 305.756 383.323C305.628 383.531 305.564 383.767 305.564 384.031ZM300.348 379.497V379.037C300.348 378.718 300.414 378.427 300.544 378.163C300.678 377.896 300.871 377.683 301.124 377.524C301.38 377.362 301.689 377.281 302.053 377.281C302.422 377.281 302.732 377.362 302.982 377.524C303.232 377.683 303.421 377.896 303.549 378.163C303.677 378.427 303.741 378.718 303.741 379.037V379.497C303.741 379.815 303.675 380.108 303.544 380.375C303.417 380.639 303.226 380.852 302.973 381.014C302.723 381.173 302.417 381.252 302.053 381.252C301.684 381.252 301.373 381.173 301.12 381.014C300.867 380.852 300.675 380.639 300.544 380.375C300.414 380.108 300.348 379.815 300.348 379.497ZM301.218 379.037V379.497C301.218 379.761 301.28 379.998 301.405 380.208C301.53 380.416 301.746 380.519 302.053 380.519C302.351 380.519 302.562 380.416 302.684 380.208C302.809 379.998 302.871 379.761 302.871 379.497V379.037C302.871 378.772 302.812 378.537 302.692 378.329C302.573 378.119 302.36 378.014 302.053 378.014C301.755 378.014 301.54 378.119 301.41 378.329C301.282 378.537 301.218 378.772 301.218 379.037ZM300.672 386.127L306.672 377.4H307.644L301.644 386.127H300.672Z" fill="white"/>
<path d="M42.1537 325.692V334.419H41.0969V326.8H41.0458L38.9151 328.215V327.141L41.0969 325.692H42.1537ZM47.5103 334.539C46.8682 334.539 46.3213 334.364 45.8696 334.015C45.4179 333.662 45.0728 333.152 44.8341 332.485C44.5955 331.814 44.4762 331.005 44.4762 330.056C44.4762 329.113 44.5955 328.307 44.8341 327.64C45.0756 326.969 45.4222 326.458 45.8739 326.106C46.3284 325.75 46.8739 325.573 47.5103 325.573C48.1466 325.573 48.6907 325.75 49.1424 326.106C49.5969 326.458 49.9435 326.969 50.1821 327.64C50.4236 328.307 50.5443 329.113 50.5443 330.056C50.5443 331.005 50.425 331.814 50.1864 332.485C49.9478 333.152 49.6026 333.662 49.1509 334.015C48.6992 334.364 48.1523 334.539 47.5103 334.539ZM47.5103 333.601C48.1466 333.601 48.6409 333.294 48.9932 332.681C49.3455 332.067 49.5216 331.192 49.5216 330.056C49.5216 329.3 49.4407 328.657 49.2787 328.125C49.1196 327.594 48.8895 327.189 48.5884 326.911C48.2901 326.633 47.9307 326.493 47.5103 326.493C46.8796 326.493 46.3867 326.804 46.0316 327.427C45.6764 328.046 45.4989 328.922 45.4989 330.056C45.4989 330.811 45.5784 331.454 45.7375 331.982C45.8966 332.51 46.1253 332.912 46.4236 333.188C46.7247 333.463 47.087 333.601 47.5103 333.601ZM56.6125 332.783V332.323C56.6125 332.005 56.6779 331.713 56.8085 331.449C56.9421 331.182 57.1353 330.969 57.3881 330.81C57.6438 330.648 57.9534 330.567 58.3171 330.567C58.6864 330.567 58.996 330.648 59.246 330.81C59.496 330.969 59.685 331.182 59.8128 331.449C59.9407 331.713 60.0046 332.005 60.0046 332.323V332.783C60.0046 333.101 59.9392 333.394 59.8085 333.661C59.6807 333.925 59.4904 334.138 59.2375 334.3C58.9875 334.459 58.6807 334.539 58.3171 334.539C57.9478 334.539 57.6367 334.459 57.3838 334.3C57.131 334.138 56.9392 333.925 56.8085 333.661C56.6779 333.394 56.6125 333.101 56.6125 332.783ZM57.4818 332.323V332.783C57.4818 333.047 57.5443 333.284 57.6693 333.495C57.7943 333.702 58.0103 333.806 58.3171 333.806C58.6154 333.806 58.8256 333.702 58.9478 333.495C59.0728 333.284 59.1353 333.047 59.1353 332.783V332.323C59.1353 332.059 59.0756 331.823 58.9563 331.615C58.837 331.405 58.6239 331.3 58.3171 331.3C58.0188 331.3 57.8043 331.405 57.6736 331.615C57.5458 331.823 57.4818 332.059 57.4818 332.323ZM52.2659 327.789V327.329C52.2659 327.01 52.3313 326.719 52.462 326.455C52.5955 326.188 52.7887 325.975 53.0415 325.816C53.2972 325.654 53.6068 325.573 53.9705 325.573C54.3398 325.573 54.6495 325.654 54.8995 325.816C55.1495 325.975 55.3384 326.188 55.4662 326.455C55.5941 326.719 55.658 327.01 55.658 327.329V327.789C55.658 328.107 55.5926 328.4 55.462 328.667C55.3341 328.931 55.1438 329.144 54.8909 329.306C54.6409 329.465 54.3341 329.544 53.9705 329.544C53.6012 329.544 53.2901 329.465 53.0372 329.306C52.7844 329.144 52.5926 328.931 52.462 328.667C52.3313 328.4 52.2659 328.107 52.2659 327.789ZM53.1353 327.329V327.789C53.1353 328.053 53.1978 328.29 53.3228 328.5C53.4478 328.708 53.6637 328.811 53.9705 328.811C54.2688 328.811 54.479 328.708 54.6012 328.5C54.7262 328.29 54.7887 328.053 54.7887 327.789V327.329C54.7887 327.064 54.729 326.829 54.6097 326.621C54.4904 326.411 54.2773 326.306 53.9705 326.306C53.6722 326.306 53.4577 326.411 53.327 326.621C53.1992 326.829 53.1353 327.064 53.1353 327.329ZM52.5898 334.419L58.5898 325.692H59.5614L53.5614 334.419H52.5898Z" fill="white"/>
<path d="M3.97159 169.273V178H2.91477V170.381H2.86364L0.732955 171.795V170.722L2.91477 169.273H3.97159ZM9.32812 178.119C8.68608 178.119 8.1392 177.945 7.6875 177.595C7.2358 177.243 6.89063 176.733 6.65199 176.065C6.41335 175.395 6.29403 174.585 6.29403 173.636C6.29403 172.693 6.41335 171.888 6.65199 171.22C6.89347 170.55 7.24006 170.038 7.69176 169.686C8.14631 169.331 8.69176 169.153 9.32812 169.153C9.96449 169.153 10.5085 169.331 10.9602 169.686C11.4148 170.038 11.7614 170.55 12 171.22C12.2415 171.888 12.3622 172.693 12.3622 173.636C12.3622 174.585 12.2429 175.395 12.0043 176.065C11.7656 176.733 11.4205 177.243 10.9688 177.595C10.517 177.945 9.97017 178.119 9.32812 178.119ZM9.32812 177.182C9.96449 177.182 10.4588 176.875 10.8111 176.261C11.1634 175.648 11.3395 174.773 11.3395 173.636C11.3395 172.881 11.2585 172.237 11.0966 171.706C10.9375 171.175 10.7074 170.77 10.4062 170.491C10.108 170.213 9.74858 170.074 9.32812 170.074C8.69744 170.074 8.20455 170.385 7.84943 171.007C7.49432 171.626 7.31676 172.503 7.31676 173.636C7.31676 174.392 7.39631 175.034 7.5554 175.562C7.71449 176.091 7.94318 176.493 8.24148 176.768C8.54261 177.044 8.90483 177.182 9.32812 177.182ZM18.4304 176.364V175.903C18.4304 175.585 18.4957 175.294 18.6264 175.03C18.7599 174.763 18.9531 174.55 19.206 174.391C19.4616 174.229 19.7713 174.148 20.1349 174.148C20.5043 174.148 20.8139 174.229 21.0639 174.391C21.3139 174.55 21.5028 174.763 21.6307 175.03C21.7585 175.294 21.8224 175.585 21.8224 175.903V176.364C21.8224 176.682 21.7571 176.974 21.6264 177.241C21.4986 177.506 21.3082 177.719 21.0554 177.881C20.8054 178.04 20.4986 178.119 20.1349 178.119C19.7656 178.119 19.4545 178.04 19.2017 177.881C18.9489 177.719 18.7571 177.506 18.6264 177.241C18.4957 176.974 18.4304 176.682 18.4304 176.364ZM19.2997 175.903V176.364C19.2997 176.628 19.3622 176.865 19.4872 177.075C19.6122 177.283 19.8281 177.386 20.1349 177.386C20.4332 177.386 20.6435 177.283 20.7656 177.075C20.8906 176.865 20.9531 176.628 20.9531 176.364V175.903C20.9531 175.639 20.8935 175.403 20.7741 175.196C20.6548 174.986 20.4418 174.881 20.1349 174.881C19.8366 174.881 19.6222 174.986 19.4915 175.196C19.3636 175.403 19.2997 175.639 19.2997 175.903ZM14.0838 171.369V170.909C14.0838 170.591 14.1491 170.3 14.2798 170.036C14.4134 169.768 14.6065 169.555 14.8594 169.396C15.1151 169.234 15.4247 169.153 15.7884 169.153C16.1577 169.153 16.4673 169.234 16.7173 169.396C16.9673 169.555 17.1563 169.768 17.2841 170.036C17.4119 170.3 17.4759 170.591 17.4759 170.909V171.369C17.4759 171.687 17.4105 171.98 17.2798 172.247C17.152 172.511 16.9616 172.724 16.7088 172.886C16.4588 173.045 16.152 173.125 15.7884 173.125C15.419 173.125 15.108 173.045 14.8551 172.886C14.6023 172.724 14.4105 172.511 14.2798 172.247C14.1491 171.98 14.0838 171.687 14.0838 171.369ZM14.9531 170.909V171.369C14.9531 171.634 15.0156 171.871 15.1406 172.081C15.2656 172.288 15.4815 172.392 15.7884 172.392C16.0866 172.392 16.2969 172.288 16.419 172.081C16.544 171.871 16.6065 171.634 16.6065 171.369V170.909C16.6065 170.645 16.5469 170.409 16.4276 170.202C16.3082 169.991 16.0952 169.886 15.7884 169.886C15.4901 169.886 15.2756 169.991 15.1449 170.202C15.017 170.409 14.9531 170.645 14.9531 170.909ZM14.4077 178L20.4077 169.273H21.3793L15.3793 178H14.4077Z" fill="white"/>
<path d="M191.143 6.22829V14.9556H190.087V7.33625H190.036L187.905 8.75102V7.67716L190.087 6.22829H191.143ZM196.5 15.0749C195.858 15.0749 195.311 14.9002 194.859 14.5507C194.408 14.1985 194.063 13.6885 193.824 13.0209C193.585 12.3505 193.466 11.5408 193.466 10.5919C193.466 9.64875 193.585 8.84335 193.824 8.17574C194.065 7.50528 194.412 6.99392 194.864 6.64165C195.318 6.28653 195.864 6.10898 196.5 6.10898C197.136 6.10898 197.68 6.28653 198.132 6.64165C198.587 6.99392 198.933 7.50528 199.172 8.17574C199.413 8.84335 199.534 9.64875 199.534 10.5919C199.534 11.5408 199.415 12.3505 199.176 13.0209C198.938 13.6885 198.592 14.1985 198.141 14.5507C197.689 14.9002 197.142 15.0749 196.5 15.0749ZM196.5 14.1374C197.136 14.1374 197.631 13.8306 197.983 13.2169C198.335 12.6033 198.511 11.7283 198.511 10.5919C198.511 9.83625 198.43 9.19278 198.268 8.66153C198.109 8.13028 197.879 7.72545 197.578 7.44704C197.28 7.16863 196.92 7.02943 196.5 7.02943C195.869 7.02943 195.376 7.34051 195.021 7.96267C194.666 8.58199 194.489 9.45841 194.489 10.5919C194.489 11.3476 194.568 11.9897 194.727 12.5181C194.886 13.0465 195.115 13.4485 195.413 13.724C195.714 13.9996 196.077 14.1374 196.5 14.1374ZM205.602 13.3192V12.859C205.602 12.5408 205.668 12.2496 205.798 11.9854C205.932 11.7184 206.125 11.5053 206.378 11.3462C206.634 11.1843 206.943 11.1033 207.307 11.1033C207.676 11.1033 207.986 11.1843 208.236 11.3462C208.486 11.5053 208.675 11.7184 208.803 11.9854C208.93 12.2496 208.994 12.5408 208.994 12.859V13.3192C208.994 13.6374 208.929 13.93 208.798 14.197C208.67 14.4612 208.48 14.6743 208.227 14.8362C207.977 14.9953 207.67 15.0749 207.307 15.0749C206.938 15.0749 206.626 14.9953 206.374 14.8362C206.121 14.6743 205.929 14.4612 205.798 14.197C205.668 13.93 205.602 13.6374 205.602 13.3192ZM206.472 12.859V13.3192C206.472 13.5834 206.534 13.8206 206.659 14.0309C206.784 14.2382 207 14.3419 207.307 14.3419C207.605 14.3419 207.815 14.2382 207.938 14.0309C208.062 13.8206 208.125 13.5834 208.125 13.3192V12.859C208.125 12.5948 208.065 12.359 207.946 12.1516C207.827 11.9414 207.614 11.8362 207.307 11.8362C207.009 11.8362 206.794 11.9414 206.663 12.1516C206.536 12.359 206.472 12.5948 206.472 12.859ZM201.256 8.32488V7.86466C201.256 7.54648 201.321 7.25528 201.452 6.99108C201.585 6.72403 201.778 6.51096 202.031 6.35187C202.287 6.18994 202.597 6.10898 202.96 6.10898C203.33 6.10898 203.639 6.18994 203.889 6.35187C204.139 6.51096 204.328 6.72403 204.456 6.99108C204.584 7.25528 204.648 7.54648 204.648 7.86466V8.32488C204.648 8.64307 204.582 8.93568 204.452 9.20273C204.324 9.46693 204.134 9.68 203.881 9.84193C203.631 10.001 203.324 10.0806 202.96 10.0806C202.591 10.0806 202.28 10.001 202.027 9.84193C201.774 9.68 201.582 9.46693 201.452 9.20273C201.321 8.93568 201.256 8.64307 201.256 8.32488ZM202.125 7.86466V8.32488C202.125 8.58909 202.188 8.82631 202.312 9.03653C202.438 9.24392 202.653 9.34761 202.96 9.34761C203.259 9.34761 203.469 9.24392 203.591 9.03653C203.716 8.82631 203.778 8.58909 203.778 8.32488V7.86466C203.778 7.60045 203.719 7.36466 203.599 7.15727C203.48 6.94704 203.267 6.84193 202.96 6.84193C202.662 6.84193 202.447 6.94704 202.317 7.15727C202.189 7.36466 202.125 7.60045 202.125 7.86466ZM201.58 14.9556L207.58 6.22829H208.551L202.551 14.9556H201.58Z" fill="white"/>
<path d="M59.7792 48.2801V57.0073H58.7224V49.388H58.6713L56.5406 50.8028V49.7289L58.7224 48.2801H59.7792ZM65.1357 57.1266C64.4937 57.1266 63.9468 56.9519 63.4951 56.6025C63.0434 56.2502 62.6982 55.7403 62.4596 55.0727C62.221 54.4022 62.1017 53.5926 62.1017 52.6437C62.1017 51.7005 62.221 50.8951 62.4596 50.2275C62.7011 49.557 63.0477 49.0457 63.4994 48.6934C63.9539 48.3383 64.4994 48.1607 65.1357 48.1607C65.7721 48.1607 66.3161 48.3383 66.7678 48.6934C67.2224 49.0457 67.569 49.557 67.8076 50.2275C68.0491 50.8951 68.1698 51.7005 68.1698 52.6437C68.1698 53.5926 68.0505 54.4022 67.8119 55.0727C67.5732 55.7403 67.2281 56.2502 66.7764 56.6025C66.3247 56.9519 65.7778 57.1266 65.1357 57.1266ZM65.1357 56.1891C65.7721 56.1891 66.2664 55.8823 66.6187 55.2687C66.971 54.6551 67.1471 53.7801 67.1471 52.6437C67.1471 51.888 67.0661 51.2445 66.9042 50.7133C66.7451 50.182 66.515 49.7772 66.2139 49.4988C65.9156 49.2204 65.5562 49.0812 65.1357 49.0812C64.5051 49.0812 64.0122 49.3923 63.657 50.0144C63.3019 50.6337 63.1244 51.5102 63.1244 52.6437C63.1244 53.3994 63.2039 54.0414 63.363 54.5698C63.5221 55.0982 63.7508 55.5002 64.0491 55.7758C64.3502 56.0514 64.7124 56.1891 65.1357 56.1891ZM74.238 55.371V54.9107C74.238 54.5926 74.3034 54.3014 74.434 54.0372C74.5676 53.7701 74.7607 53.557 75.0136 53.3979C75.2693 53.236 75.5789 53.1551 75.9426 53.1551C76.3119 53.1551 76.6215 53.236 76.8715 53.3979C77.1215 53.557 77.3105 53.7701 77.4383 54.0372C77.5661 54.3014 77.6301 54.5926 77.6301 54.9107V55.371C77.6301 55.6891 77.5647 55.9818 77.434 56.2488C77.3062 56.513 77.1159 56.7261 76.863 56.888C76.613 57.0471 76.3062 57.1266 75.9426 57.1266C75.5732 57.1266 75.2622 57.0471 75.0093 56.888C74.7565 56.7261 74.5647 56.513 74.434 56.2488C74.3034 55.9818 74.238 55.6891 74.238 55.371ZM75.1073 54.9107V55.371C75.1073 55.6352 75.1698 55.8724 75.2948 56.0826C75.4198 56.29 75.6357 56.3937 75.9426 56.3937C76.2409 56.3937 76.4511 56.29 76.5732 56.0826C76.6982 55.8724 76.7607 55.6352 76.7607 55.371V54.9107C76.7607 54.6465 76.7011 54.4107 76.5818 54.2033C76.4624 53.9931 76.2494 53.888 75.9426 53.888C75.6443 53.888 75.4298 53.9931 75.2991 54.2033C75.1713 54.4107 75.1073 54.6465 75.1073 54.9107ZM69.8914 50.3766V49.9164C69.8914 49.5982 69.9568 49.307 70.0874 49.0428C70.221 48.7758 70.4142 48.5627 70.667 48.4036C70.9227 48.2417 71.2323 48.1607 71.596 48.1607C71.9653 48.1607 72.2749 48.2417 72.5249 48.4036C72.7749 48.5627 72.9639 48.7758 73.0917 49.0428C73.2195 49.307 73.2835 49.5982 73.2835 49.9164V50.3766C73.2835 50.6948 73.2181 50.9874 73.0874 51.2545C72.9596 51.5187 72.7693 51.7318 72.5164 51.8937C72.2664 52.0528 71.9596 52.1323 71.596 52.1323C71.2267 52.1323 70.9156 52.0528 70.6627 51.8937C70.4099 51.7318 70.2181 51.5187 70.0874 51.2545C69.9568 50.9874 69.8914 50.6948 69.8914 50.3766ZM70.7607 49.9164V50.3766C70.7607 50.6408 70.8232 50.8781 70.9482 51.0883C71.0732 51.2957 71.2892 51.3994 71.596 51.3994C71.8943 51.3994 72.1045 51.2957 72.2267 51.0883C72.3517 50.8781 72.4142 50.6408 72.4142 50.3766V49.9164C72.4142 49.6522 72.3545 49.4164 72.2352 49.209C72.1159 48.9988 71.9028 48.8937 71.596 48.8937C71.2977 48.8937 71.0832 48.9988 70.9525 49.209C70.8247 49.4164 70.7607 49.6522 70.7607 49.9164ZM70.2153 57.0073L76.2153 48.2801H77.1869L71.1869 57.0073H70.2153Z" fill="white"/>
<path d="M144.972 381.273V390H143.915V382.381H143.864L141.733 383.795V382.722L143.915 381.273H144.972ZM150.328 390.119C149.686 390.119 149.139 389.945 148.688 389.595C148.236 389.243 147.891 388.733 147.652 388.065C147.413 387.395 147.294 386.585 147.294 385.636C147.294 384.693 147.413 383.888 147.652 383.22C147.893 382.55 148.24 382.038 148.692 381.686C149.146 381.331 149.692 381.153 150.328 381.153C150.964 381.153 151.509 381.331 151.96 381.686C152.415 382.038 152.761 382.55 153 383.22C153.241 383.888 153.362 384.693 153.362 385.636C153.362 386.585 153.243 387.395 153.004 388.065C152.766 388.733 152.42 389.243 151.969 389.595C151.517 389.945 150.97 390.119 150.328 390.119ZM150.328 389.182C150.964 389.182 151.459 388.875 151.811 388.261C152.163 387.648 152.339 386.773 152.339 385.636C152.339 384.881 152.259 384.237 152.097 383.706C151.938 383.175 151.707 382.77 151.406 382.491C151.108 382.213 150.749 382.074 150.328 382.074C149.697 382.074 149.205 382.385 148.849 383.007C148.494 383.626 148.317 384.503 148.317 385.636C148.317 386.392 148.396 387.034 148.555 387.562C148.714 388.091 148.943 388.493 149.241 388.768C149.543 389.044 149.905 389.182 150.328 389.182ZM159.43 388.364V387.903C159.43 387.585 159.496 387.294 159.626 387.03C159.76 386.763 159.953 386.55 160.206 386.391C160.462 386.229 160.771 386.148 161.135 386.148C161.504 386.148 161.814 386.229 162.064 386.391C162.314 386.55 162.503 386.763 162.631 387.03C162.759 387.294 162.822 387.585 162.822 387.903V388.364C162.822 388.682 162.757 388.974 162.626 389.241C162.499 389.506 162.308 389.719 162.055 389.881C161.805 390.04 161.499 390.119 161.135 390.119C160.766 390.119 160.455 390.04 160.202 389.881C159.949 389.719 159.757 389.506 159.626 389.241C159.496 388.974 159.43 388.682 159.43 388.364ZM160.3 387.903V388.364C160.3 388.628 160.362 388.865 160.487 389.075C160.612 389.283 160.828 389.386 161.135 389.386C161.433 389.386 161.643 389.283 161.766 389.075C161.891 388.865 161.953 388.628 161.953 388.364V387.903C161.953 387.639 161.893 387.403 161.774 387.196C161.655 386.986 161.442 386.881 161.135 386.881C160.837 386.881 160.622 386.986 160.491 387.196C160.364 387.403 160.3 387.639 160.3 387.903ZM155.084 383.369V382.909C155.084 382.591 155.149 382.3 155.28 382.036C155.413 381.768 155.607 381.555 155.859 381.396C156.115 381.234 156.425 381.153 156.788 381.153C157.158 381.153 157.467 381.234 157.717 381.396C157.967 381.555 158.156 381.768 158.284 382.036C158.412 382.3 158.476 382.591 158.476 382.909V383.369C158.476 383.687 158.411 383.98 158.28 384.247C158.152 384.511 157.962 384.724 157.709 384.886C157.459 385.045 157.152 385.125 156.788 385.125C156.419 385.125 156.108 385.045 155.855 384.886C155.602 384.724 155.411 384.511 155.28 384.247C155.149 383.98 155.084 383.687 155.084 383.369ZM155.953 382.909V383.369C155.953 383.634 156.016 383.871 156.141 384.081C156.266 384.288 156.482 384.392 156.788 384.392C157.087 384.392 157.297 384.288 157.419 384.081C157.544 383.871 157.607 383.634 157.607 383.369V382.909C157.607 382.645 157.547 382.409 157.428 382.202C157.308 381.991 157.095 381.886 156.788 381.886C156.49 381.886 156.276 381.991 156.145 382.202C156.017 382.409 155.953 382.645 155.953 382.909ZM155.408 390L161.408 381.273H162.379L156.379 390H155.408Z" fill="white"/>
</svg>
