<svg width="43" height="38" viewBox="0 0 43 38" fill="none" xmlns="http://www.w3.org/2000/svg">
<path d="M33.3083 34.5502C33.3083 35.724 32.7068 36.7777 31.6954 37.3646C30.6874 37.9515 29.4843 37.9515 28.473 37.3646L21.9092 33.5398L23.5254 30.7188L30.0759 34.5369L30.0792 26.9207H33.305L33.3083 34.5502Z" fill="black"/>
<path d="M13.7889 0.440166C12.7809 -0.146722 11.5778 -0.146722 10.5665 0.440166C9.55844 1.02705 8.95692 2.07745 8.95361 3.25456V10.9008H12.1826V3.2679L18.72 7.07266L20.3329 4.25494L13.7889 0.440166Z" fill="black"/>
<path d="M40.6492 16.0864C41.6573 16.6733 42.2588 17.727 42.2588 18.9008C42.2588 20.0779 41.6573 21.1283 40.6492 21.7152L34.0854 25.5366L32.4692 22.7156L39.0198 18.9008L32.4858 15.0894L34.0986 12.2683L40.6492 16.0864Z" fill="black"/>
<path d="M1.60955 16.0864C0.601516 16.6733 0 17.727 0 18.9008C0 20.0779 0.601516 21.1283 1.60955 21.7152L8.17337 25.5366L9.78953 22.7156L3.23894 18.9008L9.77301 15.0894L8.16015 12.2683L1.60955 16.0864Z" fill="black"/>
<path d="M28.4727 0.440166C29.4807 -0.146722 30.6838 -0.146722 31.6951 0.440166C32.7031 1.02705 33.3047 2.07745 33.308 3.25456V10.9008H30.0789V3.2679L23.5416 7.07266L21.9287 4.25494L28.4727 0.440166Z" fill="black"/>
<path d="M8.95361 34.5468C8.95361 35.7205 9.55513 36.7743 10.5665 37.3612C11.5778 37.9481 12.7775 37.9481 13.7889 37.3612L20.3527 33.5364L18.7365 30.7153L12.1826 34.5334L12.1793 26.9172H8.95361V34.5468Z" fill="black"/>
<path d="M16.1819 10.251L11.231 18.9042L16.1819 27.5542H26.0805L31.0315 18.9042L26.0805 10.251H16.1819Z" fill="black"/>
</svg>
