<svg width="26" height="26" viewBox="0 0 26 26" fill="none" xmlns="http://www.w3.org/2000/svg">
<path d="M24 13C24 19.0751 19.0751 24 13 24V26C20.1797 26 26 20.1797 26 13H24ZM13 24C6.92487 24 2 19.0751 2 13H5.96046e-08C5.96046e-08 20.1797 5.8203 26 13 26V24ZM2 13C2 6.92487 6.92487 2 13 2V5.96046e-08C5.8203 5.96046e-08 5.96046e-08 5.8203 5.96046e-08 13H2ZM13 2C19.0751 2 24 6.92487 24 13H26C26 5.8203 20.1797 5.96046e-08 13 5.96046e-08V2ZM8.66667 13C8.66667 8.40081 10.6339 4.33741 13.6497 1.76022L12.3503 0.239778C8.87763 3.20745 6.66667 7.83228 6.66667 13H8.66667ZM13.6497 24.2398C10.6339 21.6626 8.66667 17.5992 8.66667 13H6.66667C6.66667 18.1677 8.87763 22.7926 12.3503 25.7602L13.6497 24.2398ZM17.3333 13C17.3333 17.6881 15.8261 21.7831 13.5817 24.3404L15.0849 25.6596C17.7069 22.6721 19.3333 18.0789 19.3333 13H17.3333ZM13.5817 1.65962C15.8261 4.21693 17.3333 8.31194 17.3333 13H19.3333C19.3333 7.92115 17.7069 3.32793 15.0849 0.340375L13.5817 1.65962ZM2.33333 10.3333H23.6667V8.33333H2.33333V10.3333ZM2.33333 18.3333H23.6667V16.3333H2.33333V18.3333Z" fill="#0E133A"/>
</svg>
