<svg width="48" height="48" viewBox="0 0 48 48" fill="none" xmlns="http://www.w3.org/2000/svg">
<path d="M41.9807 15.2017C38.824 31.0365 34.5751 36.6876 24.868 41.5721C24.3225 41.8466 23.6774 41.8466 23.132 41.5721C13.4249 36.6876 9.17604 31.0365 6.01931 15.2017C5.90014 14.604 6.34721 14.0378 6.95706 14C14.1237 13.5563 18.0573 11.9412 22.4875 7.57345C23.3227 6.74999 24.6773 6.74999 25.5125 7.57345C29.9427 11.9412 33.8763 13.5563 41.0429 14C41.6528 14.0378 42.0999 14.604 41.9807 15.2017Z" stroke="#0E133A" stroke-width="3" stroke-linecap="round" stroke-linejoin="round"/>
<path d="M18 24L24 18L30 24L24 30L18 24Z" stroke="#0E133A" stroke-width="3" stroke-linecap="round" stroke-linejoin="round"/>
</svg>
