<svg width="24" height="24" viewBox="0 0 24 24" fill="none" xmlns="http://www.w3.org/2000/svg">
<path d="M20.25 12C20.25 16.5563 16.5563 20.25 12 20.25V21.75C17.3848 21.75 21.75 17.3848 21.75 12H20.25ZM12 20.25C7.44365 20.25 3.75 16.5563 3.75 12H2.25C2.25 17.3848 6.61522 21.75 12 21.75V20.25ZM3.75 12C3.75 7.44365 7.44365 3.75 12 3.75V2.25C6.61522 2.25 2.25 6.61522 2.25 12H3.75ZM12 3.75C16.5563 3.75 20.25 7.44365 20.25 12H21.75C21.75 6.61522 17.3848 2.25 12 2.25V3.75ZM8.75 12C8.75 8.5506 10.2254 5.50306 12.4872 3.57017L11.5128 2.42983C8.90822 4.65559 7.25 8.12421 7.25 12H8.75ZM12.4872 20.4298C10.2254 18.4969 8.75 15.4494 8.75 12H7.25C7.25 15.8758 8.90822 19.3444 11.5128 21.5702L12.4872 20.4298ZM15.25 12C15.25 15.516 14.1196 18.5873 12.4363 20.5053L13.5637 21.4947C15.5302 19.254 16.75 15.8091 16.75 12H15.25ZM12.4363 3.49472C14.1196 5.41269 15.25 8.48396 15.25 12H16.75C16.75 8.19086 15.5302 4.74595 13.5637 2.50528L12.4363 3.49472ZM4 10H20V8.5H4V10ZM4 16H20V14.5H4V16Z" fill="white"/>
</svg>
