<svg width="24" height="24" viewBox="0 0 24 24" fill="none" xmlns="http://www.w3.org/2000/svg">
<path d="M10 3V2.25H9.25V3H10ZM14 3H14.75V2.25H14V3ZM9 3.75H15V2.25H9V3.75ZM17.25 6V18H18.75V6H17.25ZM15 20.25H9V21.75H15V20.25ZM6.75 18V6H5.25V18H6.75ZM9 20.25C7.75736 20.25 6.75 19.2426 6.75 18H5.25C5.25 20.0711 6.92893 21.75 9 21.75V20.25ZM17.25 18C17.25 19.2426 16.2426 20.25 15 20.25V21.75C17.0711 21.75 18.75 20.0711 18.75 18H17.25ZM15 3.75C16.2426 3.75 17.25 4.75736 17.25 6H18.75C18.75 3.92893 17.0711 2.25 15 2.25V3.75ZM9 2.25C6.92893 2.25 5.25 3.92893 5.25 6H6.75C6.75 4.75736 7.75736 3.75 9 3.75V2.25ZM10 3.75H14V2.25H10V3.75ZM13.25 3V4H14.75V3H13.25ZM13 4.25H11V5.75H13V4.25ZM10.75 4V3H9.25V4H10.75ZM11 4.25C10.8619 4.25 10.75 4.13807 10.75 4H9.25C9.25 4.9665 10.0335 5.75 11 5.75V4.25ZM13.25 4C13.25 4.13807 13.1381 4.25 13 4.25V5.75C13.9665 5.75 14.75 4.9665 14.75 4H13.25Z" fill="#0E133A"/>
</svg>
