<svg width="24" height="24" viewBox="0 0 24 24" fill="none" xmlns="http://www.w3.org/2000/svg">
<path d="M10.75 18C10.75 17.5858 10.4142 17.25 10 17.25C9.58579 17.25 9.25 17.5858 9.25 18H10.75ZM9.25 21C9.25 21.4142 9.58579 21.75 10 21.75C10.4142 21.75 10.75 21.4142 10.75 21H9.25ZM14.75 18C14.75 17.5858 14.4142 17.25 14 17.25C13.5858 17.25 13.25 17.5858 13.25 18H14.75ZM13.25 21C13.25 21.4142 13.5858 21.75 14 21.75C14.4142 21.75 14.75 21.4142 14.75 21H13.25ZM8 20.25C7.58579 20.25 7.25 20.5858 7.25 21C7.25 21.4142 7.58579 21.75 8 21.75V20.25ZM16 21.75C16.4142 21.75 16.75 21.4142 16.75 21C16.75 20.5858 16.4142 20.25 16 20.25V21.75ZM4 3.75H20V2.25H4V3.75ZM21.25 5V16H22.75V5H21.25ZM20 17.25H4V18.75H20V17.25ZM2.75 16V5H1.25V16H2.75ZM4 17.25C3.30964 17.25 2.75 16.6904 2.75 16H1.25C1.25 17.5188 2.48122 18.75 4 18.75V17.25ZM21.25 16C21.25 16.6904 20.6904 17.25 20 17.25V18.75C21.5188 18.75 22.75 17.5188 22.75 16H21.25ZM20 3.75C20.6904 3.75 21.25 4.30964 21.25 5H22.75C22.75 3.48122 21.5188 2.25 20 2.25V3.75ZM4 2.25C2.48122 2.25 1.25 3.48122 1.25 5H2.75C2.75 4.30964 3.30964 3.75 4 3.75V2.25ZM9.25 18V21H10.75V18H9.25ZM13.25 18V21H14.75V18H13.25ZM8 21.75H16V20.25H8V21.75Z" fill="#0E133A"/>
</svg>
